<svg width="28" height="28" viewBox="0 0 28 28" fill="none" xmlns="http://www.w3.org/2000/svg">
<path d="M4.66683 17.5002H7.00016V23.3335H21.0002V4.66683H7.00016V10.5002H4.66683V3.50016C4.66683 3.19074 4.78975 2.894 5.00854 2.6752C5.22733 2.45641 5.52408 2.3335 5.8335 2.3335H22.1668C22.4762 2.3335 22.773 2.45641 22.9918 2.6752C23.2106 2.894 23.3335 3.19074 23.3335 3.50016V24.5002C23.3335 24.8096 23.2106 25.1063 22.9918 25.3251C22.773 25.5439 22.4762 25.6668 22.1668 25.6668H5.8335C5.52408 25.6668 5.22733 25.5439 5.00854 25.3251C4.78975 25.1063 4.66683 24.8096 4.66683 24.5002V17.5002ZM11.6668 12.8335V9.3335L17.5002 14.0002L11.6668 18.6668V15.1668H2.3335V12.8335H11.6668Z" fill="white"/>
</svg>
