<svg width="20" height="20" viewBox="0 0 20 20" fill="none" xmlns="http://www.w3.org/2000/svg">
<path d="M9.1665 9.1665V5.83317H10.8332V9.1665H14.1665V10.8332H10.8332V14.1665H9.1665V10.8332H5.83317V9.1665H9.1665ZM9.99984 18.3332C5.39734 18.3332 1.6665 14.6023 1.6665 9.99984C1.6665 5.39734 5.39734 1.6665 9.99984 1.6665C14.6023 1.6665 18.3332 5.39734 18.3332 9.99984C18.3332 14.6023 14.6023 18.3332 9.99984 18.3332ZM9.99984 16.6665C11.7679 16.6665 13.4636 15.9641 14.7139 14.7139C15.9641 13.4636 16.6665 11.7679 16.6665 9.99984C16.6665 8.23173 15.9641 6.53603 14.7139 5.28579C13.4636 4.03555 11.7679 3.33317 9.99984 3.33317C8.23173 3.33317 6.53603 4.03555 5.28579 5.28579C4.03555 6.53603 3.33317 8.23173 3.33317 9.99984C3.33317 11.7679 4.03555 13.4636 5.28579 14.7139C6.53603 15.9641 8.23173 16.6665 9.99984 16.6665V16.6665Z" fill="white"/>
</svg>
