<svg width="22" height="20" viewBox="0 0 22 20" fill="none" xmlns="http://www.w3.org/2000/svg">
<path fill-rule="evenodd" clip-rule="evenodd" d="M7.44178 0.0267945C7.48103 0.00910569 7.52365 0 7.56672 0H14.4332C14.4763 0 14.5189 0.00910569 14.5583 0.0267945L19.1832 2.10944C19.2373 2.1337 19.283 2.17318 19.315 2.22304L21.9513 6.32773C22.0234 6.4402 22.0148 6.58664 21.9298 6.68964L11.2352 19.6483C11.1131 19.7963 10.8869 19.7963 10.7648 19.6483L0.0702637 6.68964C-0.0147469 6.58664 -0.0234793 6.4402 0.0487685 6.32773L2.68492 2.22304C2.71701 2.17318 2.76276 2.1337 2.81665 2.10944L7.44178 0.0267945Z" fill="url(#paint0_linear_45_1224)"/>
<path fill-rule="evenodd" clip-rule="evenodd" d="M7.44178 0.0267945C7.48103 0.00910569 7.52365 0 7.56672 0H14.4332C14.4763 0 14.5189 0.00910569 14.5583 0.0267945L19.1832 2.10944C19.2373 2.1337 19.283 2.17318 19.315 2.22304L21.9513 6.32773C22.0234 6.4402 22.0148 6.58664 21.9298 6.68964H0.0702637C-0.0147469 6.58664 -0.0234793 6.4402 0.0487685 6.32773L2.68492 2.22304C2.71701 2.17318 2.76276 2.1337 2.81665 2.10944L7.44178 0.0267945Z" fill="url(#paint1_linear_45_1224)"/>
<path d="M11.0002 4.07843L15.1726 9.59173H6.82788L11.0002 4.07843Z" fill="#95B0FF"/>
<path d="M10.7511 19.6155C10.8789 19.77 11.1171 19.7668 11.2408 19.6091L12.4142 18.1128L15.1726 9.59192H6.82788L9.50709 18.1128L10.7511 19.6155Z" fill="url(#paint2_linear_45_1224)"/>
<path d="M11.0003 4.07834L3.60376 2.98328L6.82789 9.59171L11.0003 4.07834Z" fill="#D7D6FC"/>
<path d="M0.0701904 6.68963L3.60332 2.98328L6.82745 9.59171L0.0701904 6.68963Z" fill="#BDB3F9"/>
<path d="M10.9999 4.07834L18.3963 2.98328L15.1722 9.59171L10.9999 4.07834Z" fill="#6E97FF"/>
<path d="M21.9299 6.68963L18.3969 2.98328L15.1727 9.59171L21.9299 6.68963Z" fill="#A4CCFA"/>
<path d="M21.9297 6.69007L18.3966 2.98371L19.1932 2.11517C19.2081 2.12286 19.2518 2.14174 19.2959 2.19623C19.3526 2.26616 21.0077 4.72139 21.9512 6.32823C22.0377 6.47557 21.9937 6.6129 21.9297 6.69007Z" fill="#799FF0"/>
<path d="M0.0702784 6.69007L3.60325 2.98371L2.80674 2.11517C2.79174 2.12286 2.74815 2.14174 2.70396 2.19623C2.64724 2.26616 0.992258 4.72139 0.0487085 6.32823C-0.0377948 6.47557 0.00624062 6.6129 0.0702784 6.69007Z" fill="#B28DFF"/>
<path d="M4.82795 10.7235C4.79832 10.7373 4.76981 10.7025 4.78944 10.6763L5.73679 9.41278C6.01489 9.04184 6.06556 8.54805 5.86838 8.12859L5.19702 6.69976C5.18314 6.6702 5.21815 6.64177 5.24434 6.66139L6.51047 7.60674C6.88223 7.88431 7.377 7.93484 7.79735 7.7381L9.22909 7.06816C9.25872 7.05428 9.28716 7.08921 9.2676 7.11533L8.32025 8.37885C8.04208 8.74986 7.99147 9.24358 8.18859 9.66311L8.85994 11.0919C8.87382 11.1214 8.83889 11.1499 8.81262 11.1303L7.54649 10.1849C7.17481 9.90732 6.67997 9.85679 6.25962 10.0535L4.82795 10.7235Z" fill="black"/>
<defs>
<linearGradient id="paint0_linear_45_1224" x1="-4.35749e-05" y1="6.82167" x2="22.5499" y2="6.58544" gradientUnits="userSpaceOnUse">
<stop stop-color="#9889FE"/>
<stop offset="0.495027" stop-color="#68A3F1"/>
<stop offset="1" stop-color="#61A8EA"/>
</linearGradient>
<linearGradient id="paint1_linear_45_1224" x1="2.67141" y1="2.11705" x2="18.9357" y2="2.03831" gradientUnits="userSpaceOnUse">
<stop stop-color="#B69EFD"/>
<stop offset="1" stop-color="#9BB7FC"/>
</linearGradient>
<linearGradient id="paint2_linear_45_1224" x1="11.0002" y1="9.59192" x2="11.0002" y2="19.7294" gradientUnits="userSpaceOnUse">
<stop stop-color="#B3C9FA"/>
<stop offset="1" stop-color="#A3D2F6"/>
</linearGradient>
</defs>
</svg>
